<?xml version="1.0" encoding="UTF-8"?>
<svg id="Layer_1" data-name="Layer 1" xmlns="http://www.w3.org/2000/svg" viewBox="0 0 700 700">
  <defs>
    <style>
      .cls-1 {
        fill: #68c6b5;
      }

      .cls-1, .cls-2 {
        stroke: #000;
        stroke-miterlimit: 10;
        stroke-width: 6px;
      }

      .cls-2 {
        fill: #fff;
      }
    </style>
  </defs>
  <rect class="cls-2" x="50" y="50" width="600" height="600"/>
  <g>
    <g>
      <line class="cls-2" x1="350" y1="134" x2="350" y2="566"/>
      <line class="cls-2" x1="162.94" y1="458" x2="537.06" y2="242"/>
      <line class="cls-2" x1="162.94" y1="242" x2="537.06" y2="458"/>
    </g>
    <g>
      <polygon class="cls-1" points="350 220.19 237.58 285.1 237.58 414.9 350 479.81 462.42 414.9 462.42 285.1 350 220.19"/>
      <g>
        <circle class="cls-2" cx="350" cy="316.7" r="33.3"/>
        <path class="cls-2" d="m331.6,353.19h36.5c13.37,0,24.23,10.86,24.23,24.23v39.18h-84.66v-39.47c0-13.21,10.72-23.93,23.93-23.93Z"/>
      </g>
    </g>
    <g>
      <g>
        <path class="cls-1" d="m325.63,87.58h0c-15.08,8.71-24.37,24.79-24.37,42.2h0c0,17.41,9.29,33.5,24.37,42.2h0c15.08,8.71,33.66,8.71,48.73,0h0c15.08-8.71,24.37-24.79,24.37-42.2h0c0-17.41-9.29-33.5-24.37-42.2h0c-15.08-8.71-33.66-8.71-48.73,0Z"/>
        <g>
          <circle class="cls-2" cx="350" cy="115.35" r="14.44"/>
          <path class="cls-2" d="m349.89,131.17h0c10.19,0,18.46,8.27,18.46,18.46v9.02h-36.7v-9.25c0-10.07,8.17-18.24,18.24-18.24Z"/>
        </g>
      </g>
      <g>
        <path class="cls-1" d="m325.63,528.01h0c-15.08,8.71-24.37,24.79-24.37,42.2h0c0,17.41,9.29,33.5,24.37,42.2h0c15.08,8.71,33.66,8.71,48.73,0h0c15.08-8.71,24.37-24.79,24.37-42.2h0c0-17.41-9.29-33.5-24.37-42.2h0c-15.08-8.71-33.66-8.71-48.73,0Z"/>
        <g>
          <circle class="cls-2" cx="350" cy="555.78" r="14.44"/>
          <path class="cls-2" d="m349.89,571.6h0c10.19,0,18.46,8.27,18.46,18.46v9.02h-36.7v-9.25c0-10.07,8.17-18.24,18.24-18.24Z"/>
        </g>
      </g>
    </g>
    <g>
      <g>
        <path class="cls-1" d="m538.34,196.23h0c-15.08,8.71-24.37,24.79-24.37,42.2h0c0,17.41,9.29,33.5,24.37,42.2h0c15.08,8.71,33.66,8.71,48.73,0h0c15.08-8.71,24.37-24.79,24.37-42.2h0c0-17.41-9.29-33.5-24.37-42.2h0c-15.08-8.71-33.66-8.71-48.73,0Z"/>
        <g>
          <circle class="cls-2" cx="562.71" cy="224" r="14.44"/>
          <path class="cls-2" d="m562.6,239.82h0c10.19,0,18.46,8.27,18.46,18.46v9.02h-36.7v-9.25c0-10.07,8.17-18.24,18.24-18.24Z"/>
        </g>
      </g>
      <g>
        <path class="cls-1" d="m112.92,419.36h0c-15.08,8.71-24.37,24.79-24.37,42.2h0c0,17.41,9.29,33.5,24.37,42.2h0c15.08,8.71,33.66,8.71,48.73,0h0c15.08-8.71,24.37-24.79,24.37-42.2h0c0-17.41-9.29-33.5-24.37-42.2h0c-15.08-8.71-33.66-8.71-48.73,0Z"/>
        <g>
          <circle class="cls-2" cx="137.29" cy="447.13" r="14.44"/>
          <path class="cls-2" d="m137.18,462.94h0c10.19,0,18.46,8.27,18.46,18.46v9.02h-36.7v-9.25c0-10.07,8.17-18.24,18.24-18.24Z"/>
        </g>
      </g>
    </g>
    <g>
      <g>
        <path class="cls-1" d="m538.34,419.36h0c-15.08,8.71-24.37,24.79-24.37,42.2h0c0,17.41,9.29,33.5,24.37,42.2h0c15.08,8.71,33.66,8.71,48.73,0h0c15.08-8.71,24.37-24.79,24.37-42.2h0c0-17.41-9.29-33.5-24.37-42.2h0c-15.08-8.71-33.66-8.71-48.73,0Z"/>
        <g>
          <circle class="cls-2" cx="562.71" cy="447.13" r="14.44"/>
          <path class="cls-2" d="m562.6,462.94h0c10.19,0,18.46,8.27,18.46,18.46v9.02h-36.7v-9.25c0-10.07,8.17-18.24,18.24-18.24Z"/>
        </g>
      </g>
      <g>
        <path class="cls-1" d="m112.92,196.23h0c-15.08,8.71-24.37,24.79-24.37,42.2h0c0,17.41,9.29,33.5,24.37,42.2h0c15.08,8.71,33.66,8.71,48.73,0h0c15.08-8.71,24.37-24.79,24.37-42.2h0c0-17.41-9.29-33.5-24.37-42.2h0c-15.08-8.71-33.66-8.71-48.73,0Z"/>
        <g>
          <circle class="cls-2" cx="137.29" cy="224" r="14.44"/>
          <path class="cls-2" d="m137.18,239.82h0c10.19,0,18.46,8.27,18.46,18.46v9.02h-36.7v-9.25c0-10.07,8.17-18.24,18.24-18.24Z"/>
        </g>
      </g>
    </g>
  </g>
</svg>